<?xml version="1.0" encoding="UTF-8"?><svg id="Layer_2" xmlns="http://www.w3.org/2000/svg" xmlns:xlink="http://www.w3.org/1999/xlink" viewBox="0 0 271.62 429.6"><defs><clipPath id="clippath"><path d="M72.28,332.5h0c-20.47-14.2-34.72-35.82-40.07-58.66-4.02-17.19-4.61-36.37,3.54-61.1,6.36-19.46,11.55-34.68,25.58-47.02,11.56-10.16,6.28-3.62,11.92-17.34,1.41-3.43,3.13-6.92,4.85-10.19C103.94,88.81,116.21,35.09,44.73,1.9,43.04,1.13,38.23,.48,35.15,0c30.71,55.64,9.51,114.89-15.33,168.97-30.28,65.9-29.32,130.31,27.2,172h0c1.04,.81,2.13,1.58,3.25,2.33,.15,.1,.29,.21,.44,.31,.32,.22,.66,.43,1,.62,11.19,7.04,25.53,11.43,36.94,12.57-8.69-8.4-5.96-20.24-12.53-22.99-.99-.41-2.3-.86-3.83-1.31" style="clip-rule:evenodd; fill:#fff;"/></clipPath></defs><g id="Layer_1-2"><path d="M72.28,332.5h0c-20.47-14.2-34.72-35.82-40.07-58.66-4.02-17.19-4.61-36.37,3.54-61.1,6.36-19.46,11.55-34.68,25.58-47.02,11.56-10.16,6.28-3.62,11.92-17.34,1.41-3.43,3.13-6.92,4.85-10.19C103.94,88.81,116.21,35.09,44.73,1.9,43.04,1.13,38.23,.48,35.15,0c30.71,55.64,9.51,114.89-15.33,168.97-30.28,65.9-29.32,130.31,27.2,172h0c1.04,.81,2.13,1.58,3.25,2.33,.15,.1,.29,.21,.44,.31,.32,.22,.66,.43,1,.62,11.19,7.04,25.53,11.43,36.94,12.57-8.69-8.4-5.96-20.24-12.53-22.99-.99-.41-2.3-.86-3.83-1.31" style="fill:#fff; fill-rule:evenodd;"/><g><path d="M72.28,332.5h0c-20.47-14.2-34.72-35.82-40.07-58.66-4.02-17.19-4.61-36.37,3.54-61.1,6.36-19.46,11.55-34.68,25.58-47.02,11.56-10.16,6.28-3.62,11.92-17.34,1.41-3.43,3.13-6.92,4.85-10.19C103.94,88.81,116.21,35.09,44.73,1.9,43.04,1.13,38.23,.48,35.15,0c30.71,55.64,9.51,114.89-15.33,168.97-30.28,65.9-29.32,130.31,27.2,172h0c1.04,.81,2.13,1.58,3.25,2.33,.15,.1,.29,.21,.44,.31,.32,.22,.66,.43,1,.62,11.19,7.04,25.53,11.43,36.94,12.57-8.69-8.4-5.96-20.24-12.53-22.99-.99-.41-2.3-.86-3.83-1.31" style="fill:#fff; fill-rule:evenodd;"/><g style="clip-path:url(#clippath);"><path d="M118.11,141.93l-.82,26.62c-5.76-3.49-11.33-6.13-16.84-7.87-5.47-1.74-11.05-2.59-16.7-2.59-17.88,0,.53,10.17-9.99,25.59-10.51,15.42-31.13,33.77-31.13,59.97s-4.61,39.95,5.87,55.11c10.48,15.16,17.37,30.14,35.46,30.14,5.72,0,11.33-.79,16.77-2.43,5.43-1.58,10.8-3.96,16.13-7.08l.61,27.57c-5.15,2.48-10.66,4.36-16.52,5.65-5.87,1.29-12.09,10.56-18.66,10.56-24.35,0-40.59-20.9-57.64-37.91-15.92-15.89-31.54-47.44-31.54-81.19s15.97-61.43,31.97-80.37c18.64-22.07,35.37-26.98,57.85-30.32,6.44-.95,12.69,.69,18.59,2.11,5.9,1.37,11.44,3.54,16.59,6.44" style="fill:#fff;"/></g></g><path d="M143.83,223.25c2.48,24.65-2.5,52.13-9.74,73.29-4.66,13.62-10.35,25.07-18.02,35.67-2.71,3.74-3.04,8.36-6.28,11.94l-.47,4.43c-.6,.84-2.16,4.45-2.77,5.41-.58,.93,1.98,.07,1.39,1.08,3.33-1.29,5.49-11.42,8.08-13.9,1.02-.98,2.28-1.92,3.18-2.87,1.05-1.12,2.01-1.94,3.06-3,5.33-5.37,9.16-10.19,13.65-16.46,10.16-14.19,17.69-32.86,21.86-50.62,9.69-41.26,5.4-89.4-6.33-130.13C135.33,82.12,98.69,26.96,44.73,1.9,43.04,1.13,37.68-.06,35.15,0c70.65,50.17,102.78,164.63,108.68,223.24" style="fill:#fff; fill-rule:evenodd;"/><path d="M258.74,320.6c-38.02-7.7-61.56-5.49-99.18,1.22-20.82,3.72-39.49,8.48-47.65,11.9-6.57,2.75-6.2,14.69-14.89,23.09,37.68-8.14,97.12-9.53,152.75-3.74l8.97-32.47Z" style="fill:#fff; fill-rule:evenodd;"/><path d="M250.79,253.06c0,5.69-.68,11.02-2.05,15.99-1.37,4.98-3.31,9.32-5.82,13.04-2.52,3.72-5.55,6.64-9.1,8.78-3.55,2.13-7.57,3.2-12.06,3.2s-8.53-1.07-12.14-3.2c-3.61-2.13-6.7-5.08-9.27-8.86-2.57-3.77-4.54-8.15-5.91-13.12-1.37-4.98-2.05-10.36-2.05-16.16s.68-11.04,2.05-16.07c1.37-5.03,3.31-9.38,5.82-13.04,2.52-3.66,5.55-6.56,9.1-8.69,3.55-2.13,7.57-3.2,12.06-3.2s8.53,1.09,12.14,3.28c3.61,2.19,6.7,5.14,9.27,8.86,2.57,3.72,4.54,8.09,5.91,13.12,1.37,5.03,2.05,10.39,2.05,16.07m20.83-.33c0-8.2-1.18-15.91-3.53-23.13-2.35-7.22-5.71-13.51-10.09-18.86-4.37-5.36-9.62-9.57-15.75-12.63-6.12-3.06-12.96-4.59-20.5-4.59s-14.41,1.56-20.59,4.67c-6.18,3.12-11.45,7.35-15.83,12.71-4.37,5.36-7.76,11.67-10.17,18.95-2.41,7.27-3.61,15.01-3.61,23.21s1.18,15.91,3.53,23.13c2.35,7.22,5.71,13.51,10.09,18.86,4.37,5.36,9.62,9.57,15.75,12.63,6.12,3.06,12.96,4.59,20.5,4.59s14.41-1.56,20.59-4.67c6.18-3.12,11.45-7.35,15.83-12.71,4.37-5.36,7.76-11.67,10.17-18.95,2.41-7.27,3.61-15.01,3.61-23.21Z" style="fill:#fff;"/><path d="M248.92,395.3c4.22,0,7.19-2.32,7.19-6.13v-.08c0-3.05-2.13-4.59-4.72-5.21l4.47-4.16v-3.65h-12.01v4h6.13l-4.13,4,.31,2.7h.53c2.94,0,4.38,.86,4.38,2.3v.05c0,1.27-1.09,2.11-2.63,2.11-1.63,0-2.91-.78-3.56-1.22l-2.06,3.54c1.56,1.11,3.72,1.76,6.1,1.76m-19.82-.32h12.72v-4.05h-6.75l3.53-3.76c2.47-2.59,3.31-4.11,3.31-6.11v-.08c0-3.22-2.66-5.24-6.35-5.24-2.44,0-4.72,.92-6.82,2.73l2.5,3.27c1.34-1.13,2.41-1.84,3.6-1.84s2,.76,2,1.7c0,1-.59,1.78-2.09,3.46l-5.66,6.24v3.67Zm-8.82-3.7c-1.5,0-2.47-1.46-2.47-5.4v-.76c0-3.92,.94-5.35,2.44-5.35s2.44,1.46,2.44,5.38v.76c0,3.94-.94,5.38-2.41,5.38Zm-.03,4.05c4.72,0,7.6-3.46,7.6-9.43v-.81c0-5.94-2.85-9.37-7.57-9.37s-7.63,3.46-7.63,9.43v.78c0,5.97,2.81,9.4,7.6,9.4Zm-21.95-.35h12.72v-4.05h-6.75l3.53-3.76c2.47-2.59,3.31-4.11,3.31-6.11v-.08c0-3.22-2.66-5.24-6.35-5.24-2.44,0-4.72,.92-6.82,2.73l2.5,3.27c1.34-1.13,2.41-1.84,3.6-1.84s2,.76,2,1.7c0,1-.59,1.78-2.09,3.46l-5.66,6.24v3.67Zm-16.63-7.08l1.53-5.78,1.53,5.78h-3.06Zm-7.07,7.08h5.13l.94-3.43h5.06l.94,3.43h5.28l-5.91-18.99h-5.56l-5.88,18.99Zm-6.5,0h5.13v-18.91h-5.13v18.91Zm-11.6-14.89c2.53,0,4.22,1.4,4.22,5.19v.49c0,3.73-1.69,5.19-4.22,5.19h-.72v-10.86h.72Zm-5.88,14.89h5.75c6.22,0,9.63-3.46,9.63-9.16v-.65c0-5.7-3.38-9.1-9.6-9.1h-5.78v18.91Zm-17.73,0h5v-9.4l5.6,9.4h4.63v-18.91h-5v8.97l-5.35-8.97h-4.88v18.91Zm-7.72,0h5.13v-18.91h-5.13v18.91Zm-15.23-3.7c-1.5,0-2.47-1.46-2.47-5.4v-.76c0-3.92,.94-5.35,2.44-5.35s2.44,1.46,2.44,5.38v.76c0,3.94-.94,5.38-2.41,5.38Zm-.03,4.05c4.72,0,7.6-3.46,7.6-9.43v-.81c0-5.94-2.85-9.37-7.57-9.37s-7.63,3.46-7.63,9.43v.78c0,5.97,2.81,9.4,7.6,9.4Zm-21.95-.35h12.72v-4.05h-6.75l3.53-3.76c2.47-2.59,3.31-4.11,3.31-6.11v-.08c0-3.22-2.66-5.24-6.35-5.24-2.44,0-4.72,.92-6.82,2.73l2.5,3.27c1.34-1.13,2.41-1.84,3.6-1.84s2,.76,2,1.7c0,1-.59,1.78-2.09,3.46l-5.66,6.24v3.67Zm-18.32,0h11.51v-4.11h-6.35v-14.81h-5.16v18.91Zm-7.72,0h5.13v-18.91h-5.13v18.91Zm-12.26,.08h5.19l5.69-18.99h-5.31l-2.91,11.54-2.94-11.54h-5.44l5.72,18.99Zm-12.22-.08h5.13v-18.91h-5.13v18.91Zm-7.44,.27c2.5,0,4.41-.89,5.91-2.13l-2.56-3.46c-.78,.68-1.63,1.32-2.94,1.32-1.78,0-3.53-1.46-3.53-5.4v-.16c0-3.7,1.59-5.38,3.53-5.38,1.22,0,2.13,.65,2.78,1.24l2.66-3.57c-1.47-1.22-3.25-1.92-5.63-1.92-4.75,0-8.6,3.24-8.6,9.43v.65c0,6.16,3.53,9.37,8.38,9.37Z" style="fill:#fff;"/><path d="M240.83,415.48h3.41v-2.48h-3.41v-3.49h-2.93v3.49h-1.61v2.48h1.61v6.7c0,.71,.09,1.3,.27,1.77,.18,.47,.43,.85,.76,1.15,.33,.29,.73,.5,1.18,.63,.45,.13,.94,.19,1.47,.19s1.03-.06,1.44-.17c.42-.11,.81-.27,1.18-.48v-2.38c-.58,.29-1.18,.43-1.8,.43-.5,0-.88-.12-1.15-.37-.27-.25-.41-.66-.41-1.22v-6.25Zm-15.51,3.07c0-.99,.26-1.76,.79-2.31,.52-.55,1.21-.83,2.05-.83s1.52,.27,1.99,.81c.47,.53,.7,1.3,.7,2.29v7.2h2.93v-8.08c0-1.49-.39-2.68-1.17-3.56-.79-.88-1.9-1.32-3.33-1.32-.49,0-.94,.06-1.33,.18-.39,.12-.75,.29-1.08,.5-.33,.21-.62,.45-.86,.71-.25,.27-.48,.55-.69,.86v-6.85h-2.93v17.55h2.93v-7.15Zm-9.43,.18c0,.52-.1,1-.3,1.42-.2,.42-.47,.79-.81,1.1-.34,.31-.73,.55-1.19,.71-.46,.17-.93,.25-1.43,.25s-.97-.08-1.41-.25c-.44-.16-.82-.4-1.14-.71-.32-.31-.58-.68-.77-1.11-.19-.43-.29-.91-.29-1.43s.09-1,.28-1.43c.18-.43,.44-.79,.77-1.1,.33-.3,.71-.54,1.14-.7,.43-.17,.91-.25,1.42-.25s.97,.08,1.43,.25c.46,.16,.85,.4,1.19,.7,.34,.3,.61,.67,.81,1.11,.2,.44,.3,.92,.3,1.45Zm2.86,4.38v-10.1h-2.91v1.92c-.5-.6-1.09-1.11-1.79-1.54-.7-.43-1.58-.65-2.66-.65-.74,0-1.45,.14-2.15,.41-.7,.27-1.31,.67-1.85,1.18-.54,.51-.97,1.14-1.29,1.88-.32,.74-.48,1.58-.48,2.52s.16,1.79,.48,2.52,.75,1.36,1.29,1.88c.54,.51,1.15,.9,1.84,1.17,.69,.26,1.41,.4,2.16,.4,1.04,0,1.92-.22,2.62-.66,.71-.44,1.32-1,1.85-1.7v.99c0,1.29-.34,2.26-1.03,2.93-.69,.66-1.68,.99-2.98,.99-.87,0-1.67-.12-2.4-.36-.74-.24-1.44-.57-2.12-.99l-1.08,2.19c1.67,1.01,3.56,1.51,5.67,1.51s3.86-.52,5.05-1.56c1.19-1.04,1.78-2.68,1.78-4.93Zm-16.25,2.6v-12.7h-2.93v12.7h2.93Zm.1-14.64v-2.77h-3.15v2.77h3.15Zm-30.42,7.41c.13-.99,.48-1.8,1.07-2.42,.58-.62,1.33-.93,2.22-.93,.48,0,.91,.09,1.29,.26,.38,.18,.7,.41,.97,.71,.27,.3,.49,.65,.65,1.06s.26,.85,.31,1.31h-6.52Zm.02,1.92h9.33c.02-.14,.03-.28,.04-.41,0-.13,.01-.26,.01-.38,0-.91-.13-1.79-.38-2.62-.26-.83-.64-1.56-1.14-2.19-.51-.63-1.14-1.12-1.9-1.49-.76-.37-1.65-.55-2.66-.55-.91,0-1.75,.18-2.5,.53-.75,.35-1.41,.83-1.96,1.43-.55,.6-.98,1.3-1.29,2.1-.3,.8-.46,1.66-.46,2.57,0,.99,.17,1.9,.51,2.71,.34,.81,.8,1.5,1.38,2.08,.58,.58,1.27,1.03,2.07,1.35,.79,.32,1.65,.48,2.56,.48,1.17,0,2.18-.22,3.02-.65,.84-.43,1.57-1.01,2.18-1.73l-1.71-1.51c-.51,.5-1.03,.87-1.56,1.13-.53,.26-1.15,.38-1.88,.38-.95,0-1.75-.28-2.4-.83-.66-.55-1.07-1.35-1.25-2.39Zm-14.19-1.84c0-.99,.26-1.76,.79-2.31,.52-.55,1.21-.83,2.05-.83s1.52,.27,1.99,.81c.47,.53,.7,1.3,.7,2.29v7.2h2.93v-8.08c0-1.49-.39-2.68-1.17-3.56-.79-.88-1.9-1.32-3.33-1.32-.49,0-.94,.06-1.33,.18-.39,.12-.75,.29-1.08,.5-.33,.21-.62,.45-.86,.71-.25,.27-.48,.55-.69,.86v-6.85h-2.93v17.55h2.93v-7.15Zm-30.85-.09c.13-.99,.48-1.8,1.07-2.42,.59-.62,1.33-.93,2.22-.93,.48,0,.91,.09,1.29,.26,.38,.18,.7,.41,.97,.71,.27,.3,.49,.65,.65,1.06,.16,.41,.26,.85,.31,1.31h-6.52Zm.02,1.92h9.33c.02-.14,.03-.28,.04-.41,0-.13,.01-.26,.01-.38,0-.91-.13-1.79-.38-2.62-.26-.83-.64-1.56-1.14-2.19-.51-.63-1.14-1.12-1.9-1.49s-1.65-.55-2.66-.55c-.91,0-1.75,.18-2.5,.53-.75,.35-1.41,.83-1.96,1.43-.55,.6-.98,1.3-1.29,2.1-.3,.8-.46,1.66-.46,2.57,0,.99,.17,1.9,.51,2.71,.34,.81,.8,1.5,1.38,2.08,.58,.58,1.27,1.03,2.07,1.35,.79,.32,1.65,.48,2.56,.48,1.17,0,2.18-.22,3.02-.65,.84-.43,1.57-1.01,2.18-1.73l-1.71-1.51c-.51,.5-1.03,.87-1.56,1.13-.53,.26-1.15,.38-1.88,.38-.95,0-1.75-.28-2.4-.83-.66-.55-1.07-1.35-1.25-2.39Zm-8.78,.48c0-.83,.1-1.57,.31-2.2,.21-.63,.5-1.16,.89-1.57,.38-.42,.84-.73,1.37-.94,.53-.21,1.11-.31,1.76-.31h.17v-3.08c-1.12-.05-2.05,.22-2.79,.79s-1.31,1.35-1.71,2.31v-2.86h-2.93v12.7h2.93v-4.83Zm-11.4-1.85h-5.79l2.88-6.73,2.91,6.73Zm-1.49-10.27h-2.74l-7.41,16.95h3.03l1.73-4.06h7.96l1.71,4.06h3.13l-7.41-16.95Zm-15.63,11.4c0,.99-.26,1.76-.79,2.31-.52,.55-1.21,.83-2.05,.83s-1.52-.27-1.99-.81c-.47-.53-.7-1.3-.7-2.29v-7.2h-2.93v8.08c0,1.49,.39,2.68,1.17,3.56,.79,.88,1.9,1.32,3.33,1.32,.97,0,1.78-.22,2.4-.67,.62-.44,1.14-.97,1.56-1.59v1.99h2.93v-12.7h-2.93v7.15Zm-14.21-.75c0,.56-.09,1.09-.26,1.58-.17,.49-.43,.92-.76,1.29-.34,.37-.74,.66-1.21,.88-.47,.22-1,.32-1.59,.32-.56,0-1.07-.11-1.54-.32-.47-.22-.87-.51-1.22-.88-.34-.37-.61-.81-.8-1.31-.19-.51-.29-1.04-.29-1.6s.09-1.09,.26-1.57c.17-.49,.43-.92,.76-1.29,.34-.37,.74-.66,1.21-.88,.47-.22,.99-.32,1.57-.32s1.09,.11,1.57,.32c.47,.22,.87,.51,1.22,.89,.34,.38,.61,.81,.8,1.31,.19,.5,.29,1.03,.29,1.59Zm2.93-.05c0-.91-.17-1.77-.51-2.57-.34-.8-.81-1.5-1.41-2.1-.6-.6-1.31-1.07-2.14-1.42s-1.73-.52-2.7-.52-1.88,.18-2.7,.53c-.83,.35-1.54,.83-2.14,1.43-.6,.6-1.07,1.31-1.42,2.12-.34,.81-.52,1.67-.52,2.58s.17,1.77,.51,2.56c.34,.79,.81,1.49,1.41,2.09s1.31,1.07,2.14,1.42c.83,.34,1.72,.52,2.68,.52s1.88-.18,2.72-.53c.83-.35,1.55-.83,2.15-1.43,.6-.6,1.07-1.3,1.42-2.1,.34-.8,.52-1.66,.52-2.57Zm-19.14-.36l6.68-10.12h-3.39l-4.76,7.45-4.71-7.45h-3.49l6.68,10.19v6.64h2.98v-6.71Zm125.36,6.71h11.78v-2.67h-8.85v-14.16h-2.93v16.83Zm-37.89-14.09h5.34v-2.74h-13.66v2.74h5.34v14.09h2.98v-14.09Zm-103.65,3.53l-.72,4.21h-3.94l.72-4.21h3.94Zm5.12,0v-2.48h-2.14l.65-3.8h-2.57l-.63,3.8h-3.94l.65-3.8h-2.57l-.65,3.8h-2.84v2.48h2.4l-.7,4.21h-2.6v2.48h2.16l-.67,3.87h2.57l.65-3.87h3.94l-.67,3.87h2.57l.67-3.87h2.84v-2.48h-2.4l.7-4.21h2.57Z" style="fill:#fff;"/></g></svg>