<svg xmlns="http://www.w3.org/2000/svg" viewBox="0 0 48 48"><path d="M29 17a5 5 0 0 0-10 0v2a5 5 0 0 0 10 0zM14 35v4a1 1 0 0 0 1 1H33a1 1 0 0 0 1-1V35a9.01 9.01 0 0 0-9-9H23A9.01 9.01 0 0 0 14 35zM12 20a5.006 5.006 0 0 0 5-5V13A5 5 0 0 0 7 13v2A5.006 5.006 0 0 0 12 20z"/><path d="M12 35a10.993 10.993 0 0 1 7.35-10.37A8.982 8.982 0 0 0 13 22H11a9.014 9.014 0 0 0-9 9v4a1 1 0 0 0 1 1h9zM36 20a5.006 5.006 0 0 0 5-5V13a5 5 0 0 0-10 0v2A5.006 5.006 0 0 0 36 20zM37 22H35a8.982 8.982 0 0 0-6.35 2.63A10.993 10.993 0 0 1 36 35v1h9a1 1 0 0 0 1-1V31A9.014 9.014 0 0 0 37 22z"/></svg>