<svg xmlns="http://www.w3.org/2000/svg" viewBox="0 0 64 64"><path d="M47.832 26.555A.998.998 0 0 0 47 25h-5.097c-.981-9.579-2.137-10.556-2.585-10.923-.81-.659-2.166-1.112-4.145-1.39A4.487 4.487 0 0 0 36.5 9.5C36.5 7.019 34.481 5 32 5s-4.5 2.019-4.5 4.5c0 1.244.508 2.371 1.327 3.186-1.979.279-3.336.732-4.148 1.393-.444.365-1.601 1.342-2.581 10.921H17a1 1 0 0 0-.832 1.554L22 35.303V53h-1a1 1 0 0 0-1 1v4a1 1 0 0 0 1 1h22a1 1 0 0 0 1-1v-4a1 1 0 0 0-1-1h-1V35.303l5.832-8.748zM32 7c1.378 0 2.5 1.122 2.5 2.5S33.378 12 32 12s-2.5-1.122-2.5-2.5S30.622 7 32 7zm-6.056 8.627c.555-.452 2.058-1.029 6.056-1.219 3.998.19 5.501.767 6.042 1.207.349.355 1.163 2.787 1.852 9.384h-2.289v-4.861a1 1 0 0 0-2 0V25h-7.209v-4.861a1 1 0 0 0-2 0V25h-2.289c.688-6.598 1.501-9.029 1.837-9.373zM42 57H22v-2h20v2zm-18-4V30a1 1 0 0 0-2 0v1.697L18.869 27h26.263L42 31.697V30a1 1 0 0 0-2 0v23H24z"/></svg>