<svg xmlns="http://www.w3.org/2000/svg" data-name="Layer 1" viewBox="0 0 128 128"><path d="M62.586 27.414A2 2 0 0 0 64 28h12a2 2 0 0 0 1.415-.586l3.257-3.258a7.004 7.004 0 1 0-2.828-2.828L75.172 24H64.83L58 17.171V4h5.805a2.039 2.039 0 0 0 .585.039C82.194 3.372 100.53 11.434 109.394 28h-6.688A6.998 6.998 0 1 0 94 36.705V55H79a2 2 0 0 0-2 2v11h-4V56a2 2 0 0 0-.699-1.519L66 49.081V36h8.172l2.672 2.672a7.004 7.004 0 1 0 2.828-2.828l-3.257-3.258A2 2 0 0 0 75 32H64a2 2 0 0 0-2 2v16a2 2 0 0 0 .699 1.519l6.301 5.4V68h-8a2 2 0 0 0-1.414.586l-16 16A2 2 0 0 0 43 86v16.295a7 7 0 1 0 4 0V86.829L61.83 72H98a2 2 0 0 0 1.789-1.105l6-12A2.003 2.003 0 0 0 106 58v-7h8.807v8.236l-2.59 5.667a2 2 0 0 0-.052 1.535l8.813 23.45a.3.3 0 0 1-.033.29.18.18 0 0 1-.158.094h-8.59a2 2 0 0 0-1.896 2.64l2.375 7.049-4.649 1.616a2 2 0 0 0-.97 3.052l2.958 4.138-2.573 2.037a2 2 0 0 0-.759 1.569v5.141a6.54 6.54 0 0 1-3.167 5.629 6.077 6.077 0 0 1-3.101.857C92.048 124 60 113.483 60 96v-4.166a2 2 0 0 0-4 0V96c0 21.334 35.934 32 44.415 32a10.075 10.075 0 0 0 5.14-1.416 10.555 10.555 0 0 0 5.128-9.07v-4.174l3.309-2.618a2 2 0 0 0 .386-2.732l-2.512-3.512 3.995-1.389a2 2 0 0 0 1.24-2.527l-2.12-6.29h5.806a4.2 4.2 0 0 0 3.451-1.822 4.314 4.314 0 0 0 .483-3.975l-8.519-22.666 2.425-5.307a2 2 0 0 0 .18-.831l-.001-10.623c0-.017.004-.032.004-.048s-.004-.031-.004-.048v-.364c-.628-15.114-6.797-27.834-17.844-36.784A54.853 54.853 0 0 0 64.402.04 2.011 2.011 0 0 0 64 0h-8a2 2 0 0 0-2 2v16a2 2 0 0 0 .586 1.414zM114.696 47H104a2 2 0 0 0-2 2v8.528L96.764 68H81.001v-9h15a2 2 0 0 0 2-2V36.705A7.025 7.025 0 0 0 102.706 32h8.569a48.426 48.426 0 0 1 3.42 15zM9 13.705V31a2 2 0 0 0 .748 1.56l11 8.833a2 2 0 0 0 .252.169V63a2.002 2.002 0 0 0 .482 1.302L27 70.74v16.555a7 7 0 1 0 4 0V70a2.002 2.002 0 0 0-.481-1.302L25 62.26V18.446l10 5.715v4.134a7 7 0 1 0 4 0V23a2 2 0 0 0-1.008-1.736l-14-8A2 2 0 0 0 21 15v21.465l-8-6.424V13.705a7 7 0 1 0-4 0z"/><path d="M54 31.829V61.17l-15 15V61.705a7 7 0 1 0-4 0V81a2 2 0 0 0 3.414 1.414l19-19A2 2 0 0 0 58 62V31a2 2 0 0 0-.586-1.414L50 22.17V7a2 2 0 0 0-4 0v16a2 2 0 0 0 .586 1.414zM3 80a7 7 0 1 0 9-6.705v-13.59a7 7 0 1 0-4 0v13.59A7.01 7.01 0 0 0 3 80z"/></svg>